<?xml version="1.0" encoding="utf-8"?>
<!-- Generator: Adobe Illustrator 28.2.0, SVG Export Plug-In . SVG Version: 6.00 Build 0)  -->
<svg version="1.1" id="Layer_1" xmlns="http://www.w3.org/2000/svg" xmlns:xlink="http://www.w3.org/1999/xlink" x="0px" y="0px"
	 viewBox="0 0 800 800" style="enable-background:new 0 0 800 800;" xml:space="preserve">
<style type="text/css">
	.st0{fill:#FFFFFF;}
	.st1{fill:#9CF437;}
</style>
<path class="st0" d="M734.1,98.4c0,170.8,0,339.3,0,509c10.2,0,18.6,0,28.1,0c0-170.5,0-339.4,0-509C752.1,98.4,744,98.4,734.1,98.4
	z"/>
<path class="st0" d="M685.9,468c-162,0-324.1,0-488.6,0c-19.8,46.6-39.7,93.4-60.6,142.3c13.8,0,23.6,0,35.2,0l45.5-106.9h224.3
	c0,0,0.1,0.1,0.1,0.1L488.7,610c39,0,76.6,0,117.5,0c-17.6-41.6-34.4-81.4-52.4-124c36.4,0,69.2,0,104.3,0c0,41.1,0,80.8,0,121.7
	c11.5,0,20.6,0,29.2,0c0.1-0.2,0.2-0.6,0.4-0.8V471.7C687.1,470,686.5,468.8,685.9,468z"/>
<path class="st1" d="M656.9,99.2V411H521c-45.8-106-90.7-209.8-135.2-313H275.9C203,268.3,130.3,438,56.5,610.2h35.6
	c25.9-60.6,51.8-121.1,78.3-182.9h517.1c0.1-0.1,0.1-0.3,0.1-0.4V99.2H656.9z M266.6,394.5l63.6-146l63.6,146H266.6z"/>
<path class="st0" d="M263.8,717.7v-52.4h-27.5v-15.8H314v15.8h-27.9v52.4H263.8z"/>
<path class="st0" d="M348,717.7c-8.2,0-14.1-1.8-17.9-5.5c-3.8-3.7-5.6-9.5-5.6-17.5v-22.1c0-7.8,1.8-13.7,5.6-17.4
	c3.8-3.7,9.7-5.6,17.9-5.6h33.8c8.1,0,14,1.8,17.8,5.6c3.8,3.7,5.6,9.5,5.6,17.4v22.1c0,8-1.8,13.8-5.6,17.5
	c-3.8,3.7-9.7,5.5-17.8,5.5H348z M355.9,701.9h17.9c6,0,9-2.7,9-8.2v-20.2c0-5.4-3-8.1-9-8.1h-17.9c-3.1,0-5.4,0.7-6.9,1.8
	s-2.3,3.3-2.3,6.3v20.2c0,2.9,0.8,5,2.3,6.3S352.8,701.9,355.9,701.9z"/>
<path class="st0" d="M423.6,717.7V659l-1.2-9.4h53.5c5.2,0,9.3,0.5,12.4,1.7c3.1,1.2,5.5,2.6,7,4.6c1.6,1.8,2.6,4,3.1,6.7
	c0.5,2.5,0.8,5.1,0.8,8v9.1c0,3.7-0.7,7.2-1.8,10.2c-1.2,3.1-3.4,5.6-6.7,7.6c-3.3,1.8-7.8,2.9-13.8,2.9h-8c-4.8,0-9.4-0.1-13.6-0.4
	c-4.2-0.3-7.3-0.4-9.4-0.5V718h-22.5V717.7z M446.1,684.3h24c2.5,0,4.3-0.5,5.4-1.6c1-1,1.6-2.6,1.6-4.8V672c0-2.2-0.5-3.9-1.4-5
	c-0.9-1-2.7-1.6-5.4-1.6h-24v18.8H446.1z"/>
<path class="st0" d="M556.3,717.7v-10.2H511v-13.7l39.2-44.3h28.7v42.2h15.5v15.8h-15.5v10.2H556.3z M539.1,691.5h17.2v-20.9h-1.2
	l-15.9,19.8L539.1,691.5z"/>
<path class="st0" d="M636.3,717.7c-9.3,0-15.9-1.8-19.8-5.5c-3.9-3.7-6-9.5-6-17.5v-22.1c0-8,2-13.8,5.9-17.5
	c3.9-3.7,10.6-5.5,19.8-5.5h22.1c9.3,0,15.9,1.8,19.8,5.5s5.9,9.4,5.9,17.5v22.1c0,8-2,13.8-5.9,17.5c-3.9,3.7-10.6,5.5-19.8,5.5
	H636.3z M640.9,701.9h13.2c2.9,0,4.8-0.8,6.1-2.2c1.2-1.4,1.8-3.5,1.8-6v-20.2c0-2.2-0.7-4.2-1.8-5.7c-1.2-1.6-3.3-2.3-6-2.3H641
	c-2.7,0-4.8,0.8-6.1,2.2c-1.3,1.4-2,3.4-2,5.9v20.2c0,2.6,0.7,4.7,2,6.1C636,701.3,638,701.9,640.9,701.9z"/>
<g id="logo_symbol_3_">
	<g>
		<path class="st0" d="M52.3,661.1c-2.4,0-4.3-1.9-4.3-4.3v-25.8c0-8.1,6.6-14.7,14.7-14.7s14.7,6.6,14.7,14.7c0,2.4-2,4.3-4.3,4.3
			c-2.4,0-4.3-1.9-4.3-4.3c0-3.3-2.7-6-6-6c-3.3,0-6,2.7-6,6v25.8C56.8,659.1,54.8,661.1,52.3,661.1z"/>
	</g>
	<g>
		<path class="st0" d="M238.9,661.1c-2.4,0-4.3-1.9-4.3-4.3v-18.1c0-2.4,1.9-4.3,4.3-4.3c2.4,0,4.3,1.9,4.3,4.3v18.1
			C243.3,659.1,241.3,661.1,238.9,661.1z"/>
	</g>
	<g>
		<path class="st0" d="M83.4,692c-8.1,0-14.7-6.6-14.7-14.7v-33.6c0-2.4,1.9-4.3,4.3-4.3s4.3,1.9,4.3,4.3v33.6c0,3.3,2.7,6,6,6
			s6-2.7,6-6v-80.8c0-8.1,6.6-14.7,14.7-14.7s14.7,6.6,14.7,14.7c0,2.4-1.9,4.3-4.3,4.3s-4.3-1.9-4.3-4.3c0-3.3-2.7-6-6-6
			s-6,2.7-6,6v80.9C98.2,685.4,91.6,692,83.4,692z"/>
	</g>
	<g>
		<path class="st0" d="M124.9,671.8c-8.1,0-14.7-6.6-14.7-14.7v-47.8c0-2.4,1.9-4.3,4.3-4.3s4.3,1.9,4.3,4.3V657c0,3.3,2.7,6,6,6
			c3.3,0,6-2.7,6-6v-39.3c0-8.1,6.6-14.7,14.7-14.7s14.7,6.6,14.7,14.7c0,2.4-1.9,4.3-4.3,4.3s-4.3-1.9-4.3-4.3c0-3.3-2.7-6-6-6
			c-3.3,0-6,2.7-6,6V657C139.6,665.1,133,671.8,124.9,671.8z"/>
	</g>
	<g>
		<path class="st0" d="M166.4,717.4c-8.1,0-14.7-6.6-14.7-14.7v-72.1c0-2.4,1.9-4.3,4.3-4.3s4.3,1.9,4.3,4.3v72.1c0,3.3,2.7,6,6,6
			c3.3,0,6-2.7,6-6V557.4c0-8.1,6.6-14.7,14.7-14.7s14.7,6.6,14.7,14.7c0,2.4-2,4.3-4.3,4.3c-2.4,0-4.3-1.9-4.3-4.3c0-3.3-2.7-6-6-6
			c-3.3,0-6,2.7-6,6v145.3C181.1,710.8,174.5,717.4,166.4,717.4z"/>
	</g>
	<g>
		<path class="st0" d="M207.8,664.1c-8.1,0-14.7-6.6-14.7-14.7v-79.2c0-2.4,1.9-4.3,4.3-4.3s4.3,1.9,4.3,4.3v79.2c0,3.3,2.7,6,6,6
			c3.3,0,6-2.7,6-6v-23.7c0-8.1,6.6-14.7,14.7-14.7c8.1,0,14.7,6.6,14.7,14.7c0,2.4-1.9,4.3-4.3,4.3c-2.4,0-4.3-1.9-4.3-4.3
			c0-3.3-2.7-6-6-6c-3.3,0-6,2.7-6,6v23.7C222.5,657.5,216,664.1,207.8,664.1z"/>
	</g>
</g>
</svg>
