<svg width="100" height="100" viewBox="0 0 100 100" fill="none" xmlns="http://www.w3.org/2000/svg">
<path d="M75 75C76.6576 75 78.2473 74.3415 79.4194 73.1694C80.5915 71.9973 81.25 70.4076 81.25 68.75V53.4875C81.25 51.8299 80.5915 50.2402 79.4194 49.0681C78.2473 47.896 76.6576 47.2375 75 47.2375H66.325C66.325 45.0438 66.4562 42.8438 66.7125 40.65C67.1 38.325 67.75 36.2563 68.65 34.45C69.5563 32.6375 70.7188 31.2188 72.1438 30.1812C73.5625 29.0188 75.3688 28.4375 77.5688 28.4375V18.75C73.95 18.75 70.7875 19.525 68.0687 21.075C65.3737 22.6093 63.0565 24.7278 61.2875 27.275C59.512 30.0832 58.2034 33.1606 57.4125 36.3875C56.6155 39.9485 56.2255 43.5885 56.25 47.2375V68.75C56.25 70.4076 56.9085 71.9973 58.0806 73.1694C59.2527 74.3415 60.8424 75 62.5 75H75ZM37.5 75C39.1576 75 40.7473 74.3415 41.9194 73.1694C43.0915 71.9973 43.75 70.4076 43.75 68.75V53.4875C43.75 51.8299 43.0915 50.2402 41.9194 49.0681C40.7473 47.896 39.1576 47.2375 37.5 47.2375H28.825C28.825 45.0438 28.9562 42.8438 29.2125 40.65C29.6 38.325 30.25 36.2563 31.15 34.45C32.0563 32.6375 33.2188 31.2188 34.6438 30.1812C36.0625 29.0188 37.8687 28.4375 40.0687 28.4375V18.75C36.45 18.75 33.2875 19.525 30.5687 21.075C27.8737 22.6093 25.5565 24.7278 23.7875 27.275C22.012 30.0832 20.7034 33.1606 19.9125 36.3875C19.1155 39.9485 18.7255 43.5885 18.75 47.2375V68.75C18.75 70.4076 19.4085 71.9973 20.5806 73.1694C21.7527 74.3415 23.3424 75 25 75H37.5Z" fill="#5EEAD4"/>
</svg>
