<?xml version="1.0" encoding="utf-8"?>
<!-- Generator: Adobe Illustrator 27.8.1, SVG Export Plug-In . SVG Version: 6.00 Build 0)  -->
<svg version="1.1" id="Layer_1" xmlns="http://www.w3.org/2000/svg" xmlns:xlink="http://www.w3.org/1999/xlink" x="0px" y="0px"
	 viewBox="0 0 400 100" style="enable-background:new 0 0 400 100;" xml:space="preserve">
<style type="text/css">
	.st0{fill:#5EEAD4;}
	.st1{fill:#FFFFFF;}
</style>
<g>
	<polygon class="st0" points="278.7,18.4 270.1,3.5 287.9,34.2 306,3.5 	"/>
	<polygon class="st0" points="306,3.5 287.9,34.2 314.9,18.9 	"/>
	<polygon class="st0" points="342,3.5 306,3.5 314.9,18.9 	"/>
	<polygon class="st0" points="287.9,34.2 324,34.2 314.9,18.9 	"/>
	<polygon class="st0" points="314.9,18.9 324,34.2 342,3.5 	"/>
	<polygon class="st0" points="342,3.5 324,34.2 350.7,18.4 	"/>
	<polygon class="st0" points="350.7,18.4 324,34.2 359.6,33.9 	"/>
	<polygon class="st0" points="359.6,33.9 324,34.2 332.7,49.4 	"/>
	<polygon class="st0" points="332.7,49.4 341.6,64.7 359.6,33.9 	"/>
	<polygon class="st0" points="324,34.2 305.6,65.1 332.7,49.4 	"/>
	<polygon class="st0" points="305.6,65.1 341.6,64.7 332.7,49.4 	"/>
	<polygon class="st0" points="314.4,80.3 341.6,64.7 305.6,65.1 	"/>
	<polygon class="st0" points="323.3,95.8 341.6,64.7 314.4,80.3 	"/>
	<polygon class="st0" points="358.7,16.1 360.1,18.4 360.1,18.4 	"/>
	<polygon class="st0" points="376.1,9 354.8,9 360.2,18.4 	"/>
	<polygon class="st0" points="360.2,18.4 365.4,27.5 376.1,9 	"/>
	<polygon class="st0" points="365.4,27.6 360.1,18.4 360.1,18.4 365.4,27.7 366,26.7 365.4,27.7 	"/>
	<polygon class="st0" points="382.7,29.6 369.9,29.6 373.1,35.1 	"/>
	<polygon class="st0" points="376.3,40.9 382.7,29.6 373.1,35.1 	"/>
	<polygon class="st0" points="375.7,53.6 383.5,48.8 372.8,48.8 	"/>
	<polygon class="st0" points="378.2,58.3 383.5,48.8 375.7,53.6 	"/>
	<polygon class="st0" points="356.8,54 368.7,54 365.7,48.8 	"/>
	<polygon class="st0" points="362.8,43.9 356.8,54 365.7,48.8 	"/>
	<polygon class="st0" points="306,3.5 270.1,3.5 278.7,18.4 	"/>
</g>
<g>
	<path class="st1" d="M6.1,83.3c3.6,0.3,6.8,0,8.9-2c1.4-1.3,2.8-3.8,2.8-11.8c0-7.3,0.7-15.6,7.1-21.6c4.6-4.5,10.7-6.3,18.6-5.7
		v13.7c-3.9-0.4-6.8,0.3-8.9,2.3c-1.3,1.4-2.8,3.4-2.8,11.3c0,7.3-0.7,16.3-7,22.2c-4.7,4.3-11,5.8-18.7,5.3
		C6.1,97,6.1,83.3,6.1,83.3z"/>
	<path class="st1" d="M74.8,96.9c-16.1,1.7-24.6-8-24.6-23V28.1h14.1v14h9.9v12.5h-9.9V74c0,7.7,3.5,10.6,10.6,10.1L74.8,96.9
		L74.8,96.9z"/>
	<path class="st1" d="M108.9,98.3c-15.4,0-24.4-10.1-24.4-24.5V42.1h14.1v32.1c0,3.1,1.1,10.5,10.3,10.5c6.2,0,10.7-4.4,10.7-10.5
		V42.1h14.1v31.7C133.6,87.7,123.8,98.3,108.9,98.3z"/>
	<path class="st1" d="M199.2,69.6c0,15.9-11.6,28.7-28.2,28.7s-28.3-12.8-28.3-28.7c0-15.8,11.8-28.7,26.2-28.7
		c6.5,0,11.8,2,16.1,6.4V17.6h14.1L199.2,69.6L199.2,69.6z M171,53.9c-7.8,0-14.1,6.7-14.1,15.8c0,8.7,6.3,15.5,14.1,15.5
		s14.1-6.9,14.1-15.5C185.1,60.9,178.8,53.9,171,53.9z"/>
	<path class="st1" d="M210.8,36.1v-7.9c0-3.9,3.2-7,7.1-7c3.8,0,7,3.1,7,7v7.9H210.8z M225,97h-14.1V42.1H225V97z"/>
	<path class="st1" d="M290.3,69.6c0,16.4-12.5,28.7-27.7,28.7S234.9,86,234.9,69.6s12.4-28.9,27.6-28.9S290.3,53.2,290.3,69.6z
		 M276.1,69.7c0-9.5-6.1-16.1-13.5-16.1c-7.5,0-13.5,6.6-13.5,16.1c0,9.3,6.1,15.7,13.5,15.7C270,85.4,276.1,79,276.1,69.7z"/>
</g>
</svg>
